<svg xmlns="http://www.w3.org/2000/svg" width="146" height="48" viewBox="0 0 146 48">
    <defs>
        <radialGradient id="a" cx="6.224%" cy="137.135%" r="327.115%" fx="6.224%" fy="137.135%" gradientTransform="matrix(.59363 0 0 1 .025 0)">
            <stop offset="0%" stop-color="#80FFFF"/>
            <stop offset="5.03%" stop-color="#7CF8FD"/>
            <stop offset="70.34%" stop-color="#4CA1EB"/>
            <stop offset="100%" stop-color="#397FE3"/>
        </radialGradient>
        <radialGradient id="b" cx="-22.935%" cy="-106.479%" r="387.056%" fx="-22.935%" fy="-106.479%" gradientTransform="matrix(.59132 0 0 1 -.094 0)">
            <stop offset="0%" stop-color="#80FFFF"/>
            <stop offset="5.03%" stop-color="#7CF8FD"/>
            <stop offset="70.34%" stop-color="#4CA1EB"/>
            <stop offset="100%" stop-color="#397FE3"/>
        </radialGradient>
        <radialGradient id="c" cx="-65.136%" cy="146.74%" r="489.858%" fx="-65.136%" fy="146.74%" gradientTransform="matrix(1 0 0 .85283 0 .216)">
            <stop offset="0%" stop-color="#80FFFF"/>
            <stop offset="5.03%" stop-color="#7CF8FD"/>
            <stop offset="70.34%" stop-color="#4CA1EB"/>
            <stop offset="100%" stop-color="#397FE3"/>
        </radialGradient>
        <radialGradient id="d" cx="6.224%" cy="137.134%" r="329.356%" fx="6.224%" fy="137.134%" gradientTransform="matrix(.58938 0 0 1 .026 0)">
            <stop offset="0%" stop-color="#80FFFF"/>
            <stop offset="5.03%" stop-color="#7CF8FD"/>
            <stop offset="70.34%" stop-color="#4CA1EB"/>
            <stop offset="100%" stop-color="#397FE3"/>
        </radialGradient>
    </defs>
    <g fill="none" fill-rule="nonzero">
        <path fill="#93CEF9" d="M71.209 29.006a6.363 6.363 0 0 1 4.47 1.58l-.465.574a6.095 6.095 0 0 0-3.988-1.418 5.405 5.405 0 0 0-3.916 1.673 5.446 5.446 0 0 0-1.502 3.998c0 3.266 2.325 5.85 5.472 5.85 1.58.009 3.1-.603 4.237-1.705l.483.54a6.582 6.582 0 0 1-4.72 1.901c-3.648 0-6.276-2.943-6.276-6.586a6.208 6.208 0 0 1 1.742-4.53 6.16 6.16 0 0 1 4.463-1.877zM79.013 29h.72v10.819c0 1.292.616 1.44 1.01 1.44.086 0 .172-.007.257-.019v.72a1.533 1.533 0 0 1-.308.037 1.538 1.538 0 0 1-1.263-.543 1.807 1.807 0 0 1-.416-1.395V29zM87.5 33a4.493 4.493 0 0 1 3.19 1.294A4.391 4.391 0 0 1 92 37.448a4.439 4.439 0 0 1-2.22 3.939 4.544 4.544 0 0 1-4.559 0 4.439 4.439 0 0 1-2.219-3.939 4.391 4.391 0 0 1 1.308-3.154A4.493 4.493 0 0 1 87.5 33zm0 8.295a3.797 3.797 0 0 0 2.684-1.148 3.71 3.71 0 0 0 1.05-2.699 3.684 3.684 0 0 0-1.851-3.241 3.772 3.772 0 0 0-3.766 0 3.684 3.684 0 0 0-1.851 3.241 3.71 3.71 0 0 0 1.05 2.7 3.797 3.797 0 0 0 2.684 1.147zM95 33h.714v5.308c0 1.53.187 2.971 2.09 2.971 2.123 0 3.483-1.933 3.483-3.99V33H102v8.789h-.713v-1.547c0-.242.022-.484.067-.721h-.033C100.734 41 99.35 41.977 97.804 42 95.714 42 95 40.805 95 38.572V33zM109.588 32.432c1.196.02 2.274.823 2.77 2.063h.033a4.362 4.362 0 0 1-.064-.748V29H113v12.779h-.673v-1.15a3.358 3.358 0 0 1 .064-.694h-.032c-.51 1.295-1.655 2.11-2.9 2.063-2.145 0-3.459-1.953-3.459-4.783 0-2.902 1.49-4.783 3.588-4.783zm-.096 8.818c1.474 0 2.851-1.187 2.851-4.053 0-2.026-.913-4.016-2.786-4.016-1.57 0-2.852 1.479-2.852 4.034 0 2.465 1.153 4.035 2.787 4.035zM65.977 17.594a5.604 5.604 0 0 0 3.794 1.618c1.588 0 2.886-.967 2.886-2.564 0-3.72-7.237-2.774-7.237-7.355 0-2.123 1.835-3.972 4.516-3.972a5.561 5.561 0 0 1 3.876 1.429l-.7 1.219a4.892 4.892 0 0 0-3.176-1.261c-1.856 0-3.051 1.24-3.051 2.543 0 3.509 7.237 2.5 7.237 7.355 0 2.206-1.67 3.993-4.392 3.993a6.326 6.326 0 0 1-4.598-1.891l.845-1.114zM84.162 5.32a7.278 7.278 0 0 1 5.217 1.913l-.763 1.072a6.738 6.738 0 0 0-4.413-1.64c-3.402 0-5.835 2.69-5.835 6.18 0 3.53 2.433 6.409 5.876 6.409a6.713 6.713 0 0 0 4.701-1.975l.825 1.03a7.658 7.658 0 0 1-5.546 2.29c-4.289 0-7.34-3.426-7.34-7.734a7.406 7.406 0 0 1 2.06-5.354 7.122 7.122 0 0 1 5.218-2.19zM99.133 5.32a7.257 7.257 0 0 1 5.243 2.195 7.543 7.543 0 0 1 2.138 5.35c.076 2.739-1.314 5.303-3.63 6.695a7.264 7.264 0 0 1-7.503 0c-2.315-1.392-3.705-3.956-3.63-6.694a7.543 7.543 0 0 1 2.139-5.35 7.256 7.256 0 0 1 5.243-2.195zm0 13.934c3.258 0 5.897-2.774 5.897-6.389.066-2.191-1.043-4.246-2.895-5.362a5.804 5.804 0 0 0-6.004 0c-1.852 1.116-2.961 3.17-2.895 5.362 0 3.615 2.619 6.389 5.897 6.389zM110.011 5.573h4.289a6.322 6.322 0 0 1 2.721.4c1.421.695 2.286 2.2 2.186 3.803.097 1.816-1.035 3.464-2.742 3.993v.042c.135.188.259.385.37.588l3.155 5.948h-1.629l-3.278-6.22h-3.65v6.22h-1.422V5.573zm4.866 7.25c1.753 0 2.866-1.155 2.866-3.005a2.753 2.753 0 0 0-1.32-2.585 4.091 4.091 0 0 0-2.062-.357h-2.927v5.947h3.443zM123.666 5.573h8.165v1.303h-6.743v5.38h5.506v1.303h-5.506v5.485h7.114v1.303h-8.536zM135.942 5.573h4.288a6.322 6.322 0 0 1 2.722.4c1.42.695 2.285 2.2 2.186 3.803.096 1.816-1.036 3.464-2.743 3.993v.042c.136.188.26.385.371.588l3.155 5.948h-1.629l-3.278-6.22h-3.65v6.22h-1.422V5.573zm4.866 7.25c1.752 0 2.865-1.155 2.865-3.005a2.753 2.753 0 0 0-1.32-2.585 4.092 4.092 0 0 0-2.061-.357h-2.928v5.947h3.444z"/>
        <path fill="url(#a)" d="M.664 35.412L20.5 23.782l19.836 11.63a.372.372 0 0 1 0 .642l-19.41 11.38a.84.84 0 0 1-.851 0L.665 36.054a.372.372 0 0 1 0-.642z" opacity=".5"/>
        <path fill="url(#b)" d="M.117 23.783L20.5 11.833l19.863 11.645a.353.353 0 0 1 0 .61L20.5 35.733.117 23.783z" opacity=".79"/>
        <path fill="url(#c)" d="M.117 23.783v-11.95L20.5 23.782v11.95z" opacity=".95"/>
        <path fill="url(#d)" d="M.117 11.832L20.121.104a.748.748 0 0 1 .758 0l19.38 11.363a.423.423 0 0 1 0 .73L20.5 23.784.118 11.833z" opacity=".9"/>
    </g>
</svg>
