<svg xmlns="http://www.w3.org/2000/svg" width="35" height="36" viewBox="0 0 35 36">
    <defs>
        <linearGradient id="g3cu3mhu1a" x1=".39%" x2="99.61%" y1="0%" y2="100%">
            <stop offset="0%" stop-color="#7865D9"/>
            <stop offset="100%" stop-color="#C05353"/>
        </linearGradient>
        <filter id="6h054lmxrb">
            <feColorMatrix in="SourceGraphic" values="0 0 0 0 1.000000 0 0 0 0 1.000000 0 0 0 0 1.000000 0 0 0 1.000000 0"/>
        </filter>
    </defs>
    <g fill="none" fill-rule="evenodd">
        <g>
            <g transform="translate(-23 -27) translate(23 27.106)">
                <rect width="35" height="35.137" fill="url(#g3cu3mhu1a)" rx="5"/>
                <g stroke-linecap="round" stroke-linejoin="round" filter="url(#6h054lmxrb)">
                    <g stroke="#000" stroke-width="1.5" transform="translate(5 6.024)">
                        <path d="M8.25 17.067v3.112c.061.788.713 1.398 1.5 1.405h12c.857-.03 1.528-.752 1.5-1.613V2.119c.015-.414-.135-.817-.416-1.12-.282-.304-.671-.482-1.084-.497h-12c-.443.03-.855.241-1.138.584-.284.343-.415.788-.362 1.231V5.02"/>
                        <path d="M6.75 11.047L18.75 11.047 18.75 14.059M15.75 14.059L15.75 11.047"/>
                        <ellipse cx="3.75" cy="11.047" rx="3" ry="3.012"/>
                    </g>
                </g>
            </g>
        </g>
    </g>
</svg>
